<?xml version="1.0" encoding="iso-8859-1"?>
<!-- Generator: Adobe Illustrator 19.0.0, SVG Export Plug-In . SVG Version: 6.00 Build 0)  -->
<svg version="1.1" fill="#a6b1d7" id="Capa_1" xmlns="http://www.w3.org/2000/svg" xmlns:xlink="http://www.w3.org/1999/xlink" x="0px" y="0px"
	 viewBox="0 0 512 512" style="enable-background:new 0 0 512 512;" xml:space="preserve">
<g>
	<g>
		<path d="M384.606,0H127.392c-8.284,0-15,6.716-15,15v482c0,8.284,6.716,15,15,15h257.215c8.284,0,15-6.716,15-15V15
			C399.606,6.716,392.892,0,384.606,0z M369.608,482h-0.001H142.392V30h227.215V482z"/>
	</g>
</g>
<g>
	<g>
		<path d="M250.595,225.067c-10.854-6.6-24.033-8.211-36.157-4.419c-4.744,1.483-9.67,2.236-14.642,2.236h-7.411V212.8
			c0-8.284-6.716-15-15-15s-15,6.716-15,15v58.871c0.001,8.284,6.717,14.999,15.001,14.999s15-6.716,15-15v-18.787h7.411
			c8.012,0,15.951-1.212,23.595-3.604c3.895-1.218,8.13-0.7,11.616,1.42c2.435,1.481,5.124,2.186,7.779,2.186
			c5.064,0,10.007-2.565,12.831-7.208C259.922,238.598,257.673,229.371,250.595,225.067z"/>
	</g>
</g>
</svg>
